<?xml version="1.0" encoding="UTF-8"?>
<svg width="48px" height="48px" viewBox="0 0 48 48" version="1.1" xmlns="http://www.w3.org/2000/svg" xmlns:xlink="http://www.w3.org/1999/xlink">
    <!-- Generator: Sketch 51.1 (57501) - http://www.bohemiancoding.com/sketch -->
    <title>Icon-Transection-Active</title>
    <desc>Created with Sketch.</desc>
    <defs></defs>
    <g id="Icon-Transection-Active" stroke="none" stroke-width="1" fill="none" fill-rule="evenodd">
        <g id="Group-4" transform="translate(20.000000, 20.000000)" stroke="#0041FF" stroke-linecap="round" stroke-linejoin="round" stroke-width="2">
            <circle id="Oval" cx="4.5" cy="4.5" r="4.5"></circle>
        </g>
        <g id="Group-3" transform="translate(9.000000, 16.000000)" stroke="#0041FF" stroke-linecap="round" stroke-linejoin="round" stroke-width="2">
            <g id="Group-2">
                <g id="Group">
                    <path d="M11.566183,0.0135401868 L30,0 L30,16 L25.9193705,15.9958871 M18.8204775,15.988732 L0,15.9697625 L0,0.0302375419 L4.23511942,0.0259688886" id="Rectangle-15"></path>
                </g>
            </g>
        </g>
        <path d="M14,25 C13.4477153,25 13,24.5522847 13,24 C13,23.4477153 13.4477153,23 14,23 C14.5522847,23 15,23.4477153 15,24 C15,24.5522847 14.5522847,25 14,25 Z M34,25 C33.4477153,25 33,24.5522847 33,24 C33,23.4477153 33.4477153,23 34,23 C34.5522847,23 35,23.4477153 35,24 C35,24.5522847 34.5522847,25 34,25 Z" id="Combined-Shape" fill="#0041FF" fill-rule="nonzero"></path>
        <g id="Group-5" transform="translate(9.000000, 6.000000)" stroke="#0041FF" stroke-linecap="round" stroke-linejoin="round" stroke-width="2">
            <polyline id="Path-33" transform="translate(6.914214, 5.000000) rotate(-45.000000) translate(-6.914214, -5.000000) " points="9.82842712 2 9.82842712 8 4 8"></polyline>
            <path d="M0,5 L11,5" id="Path-32"></path>
        </g>
        <g id="Group-5" transform="translate(33.000000, 36.000000) scale(-1, 1) translate(-33.000000, -36.000000) translate(27.000000, 31.000000)" stroke="#0041FF" stroke-linecap="round" stroke-linejoin="round" stroke-width="2">
            <polyline id="Path-33" transform="translate(6.914214, 5.000000) rotate(-45.000000) translate(-6.914214, -5.000000) " points="9.82842712 2 9.82842712 8 4 8"></polyline>
            <path d="M0,5 L11,5" id="Path-32"></path>
        </g>
    </g>
</svg>