<?xml version="1.0" encoding="UTF-8"?>
<svg width="48px" height="48px" viewBox="0 0 48 48" version="1.1" xmlns="http://www.w3.org/2000/svg" xmlns:xlink="http://www.w3.org/1999/xlink">
    <!-- Generator: Sketch 51.1 (57501) - http://www.bohemiancoding.com/sketch -->
    <title>Icon-Transection</title>
    <desc>Created with Sketch.</desc>
    <defs></defs>
    <g id="Icon-Transection" stroke="none" stroke-width="1" fill="none" fill-rule="evenodd">
        <g id="Group-6" transform="translate(9.000000, 6.000000)">
            <g id="Group-4" transform="translate(11.000000, 14.000000)" stroke="#979797" stroke-linecap="round" stroke-linejoin="round" stroke-width="2">
                <circle id="Oval" cx="4.5" cy="4.5" r="4.5"></circle>
            </g>
            <g id="Group-3" transform="translate(0.000000, 10.000000)" stroke="#979797" stroke-linecap="round" stroke-linejoin="round" stroke-width="2">
                <g id="Group-2">
                    <g id="Group">
                        <path d="M11.566183,0.0135401868 L30,0 L30,16 L25.9193705,15.9958871 M18.8204775,15.988732 L0,15.9697625 L0,0.0302375419 L4.23511942,0.0259688886" id="Rectangle-15"></path>
                    </g>
                </g>
            </g>
            <path d="M5,19 C4.44771525,19 4,18.5522847 4,18 C4,17.4477153 4.44771525,17 5,17 C5.55228475,17 6,17.4477153 6,18 C6,18.5522847 5.55228475,19 5,19 Z M25,19 C24.4477153,19 24,18.5522847 24,18 C24,17.4477153 24.4477153,17 25,17 C25.5522847,17 26,17.4477153 26,18 C26,18.5522847 25.5522847,19 25,19 Z" id="Combined-Shape" fill="#979797" fill-rule="nonzero"></path>
            <g id="Group-5" stroke="#979797" stroke-linecap="round" stroke-linejoin="round" stroke-width="2">
                <polyline id="Path-33" transform="translate(6.914214, 5.000000) rotate(-45.000000) translate(-6.914214, -5.000000) " points="9.82842712 2 9.82842712 8 4 8"></polyline>
                <path d="M0,5 L11,5" id="Path-32"></path>
            </g>
            <g id="Group-5" transform="translate(24.000000, 30.000000) scale(-1, 1) translate(-24.000000, -30.000000) translate(18.000000, 25.000000)" stroke="#979797" stroke-linecap="round" stroke-linejoin="round" stroke-width="2">
                <polyline id="Path-33" transform="translate(6.914214, 5.000000) rotate(-45.000000) translate(-6.914214, -5.000000) " points="9.82842712 2 9.82842712 8 4 8"></polyline>
                <path d="M0,5 L11,5" id="Path-32"></path>
            </g>
        </g>
    </g>
</svg>