<?xml version="1.0" encoding="UTF-8"?>
<svg width="48px" height="48px" viewBox="0 0 48 48" version="1.1" xmlns="http://www.w3.org/2000/svg" xmlns:xlink="http://www.w3.org/1999/xlink">
    <!-- Generator: Sketch 51.1 (57501) - http://www.bohemiancoding.com/sketch -->
    <title>Icon-Reviwe-Action</title>
    <desc>Created with Sketch.</desc>
    <defs></defs>
    <g id="Icon-Reviwe-Action" stroke="none" stroke-width="1" fill="none" fill-rule="evenodd" stroke-linecap="round" stroke-linejoin="round">
        <path d="M23.5456021,35.25 L13.8772618,40.3329473 C13.3884172,40.5899481 12.7837901,40.4020016 12.5267893,39.913157 C12.4244502,39.7184965 12.3891355,39.4955284 12.4263124,39.2787708 L14.272801,28.5129157 L6.76052358,21.190255 C6.36504,20.8047538 6.3569477,20.1716405 6.74244891,19.7761569 C6.93066654,19.5830655 7.18888703,19.4741686 7.45853527,19.4741686 L17.6264969,19.4741686 L22.5611642,8.24096056 C22.783291,7.73531429 23.3732676,7.50547632 23.8789139,7.72760308 C24.1248065,7.83562196 24.3169135,8.03801 24.4119778,8.28919529 L28.6450767,19.4741686 L39.6326689,19.4741686 C40.1849536,19.4741686 40.6326689,19.9218839 40.6326689,20.4741686 C40.6326689,20.7438169 40.523772,21.0020373 40.3306806,21.190255 L32.8184031,28.5129157 L34.6648918,39.2787708 C34.7582528,39.8231072 34.392665,40.3400632 33.8483285,40.4334242 C33.6315709,40.470601 33.4086028,40.4352864 33.2139423,40.3329473 L23.5456021,35.25 Z" id="Star" stroke="#0041FF" stroke-width="2"></path>
    </g>
</svg>